<svg width="64" height="64" viewBox="0 0 64 64" fill="none" xmlns="http://www.w3.org/2000/svg">
<rect width="64" height="64" rx="32" fill="#F2F2F2"/>
<path d="M37 32C37 32.5523 36.5523 33 36 33C35.4477 33 35 32.5523 35 32C35 31.4477 35.4477 31 36 31C36.5523 31 37 31.4477 37 32Z" fill="#272727"/>
<path d="M29 32C29 32.5523 28.5523 33 28 33C27.4477 33 27 32.5523 27 32C27 31.4477 27.4477 31 28 31C28.5523 31 29 31.4477 29 32Z" fill="#272727"/>
<path d="M25 32C25 32.5523 24.5523 33 24 33C23.4477 33 23 32.5523 23 32C23 31.4477 23.4477 31 24 31C24.5523 31 25 31.4477 25 32Z" fill="#272727"/>
<path d="M33 32C33 32.5523 32.5523 33 32 33C31.4477 33 31 32.5523 31 32C31 31.4477 31.4477 31 32 31C32.5523 31 33 31.4477 33 32Z" fill="#272727"/>
<path d="M41 32C41 32.5523 40.5523 33 40 33C39.4477 33 39 32.5523 39 32C39 31.4477 39.4477 31 40 31C40.5523 31 41 31.4477 41 32Z" fill="#272727"/>
</svg>
