<svg width="32" height="32" viewBox="0 0 32 32" fill="none" xmlns="http://www.w3.org/2000/svg">
<path d="M7 12C7 12.5523 6.55228 13 6 13C5.44772 13 5 12.5523 5 12C5 11.4477 5.44772 11 6 11C6.55228 11 7 11.4477 7 12Z" fill="#272727"/>
<path d="M19 16C19 16.5523 18.5523 17 18 17C17.4477 17 17 16.5523 17 16C17 15.4477 17.4477 15 18 15C18.5523 15 19 15.4477 19 16Z" fill="#272727"/>
<path d="M15 16C15 16.5523 14.5523 17 14 17C13.4477 17 13 16.5523 13 16C13 15.4477 13.4477 15 14 15C14.5523 15 15 15.4477 15 16Z" fill="#272727"/>
<path d="M11 16C11 16.5523 10.5523 17 10 17C9.44771 17 9 16.5523 9 16C9 15.4477 9.44771 15 10 15C10.5523 15 11 15.4477 11 16Z" fill="#272727"/>
<path d="M7 16C7 16.5523 6.55228 17 6 17C5.44772 17 5 16.5523 5 16C5 15.4477 5.44772 15 6 15C6.55228 15 7 15.4477 7 16Z" fill="#272727"/>
<path d="M3 16C3 16.5523 2.55228 17 2 17C1.44772 17 1 16.5523 1 16C1 15.4477 1.44772 15 2 15C2.55228 15 3 15.4477 3 16Z" fill="#272727"/>
<path d="M7 20C7 20.5523 6.55228 21 6 21C5.44772 21 5 20.5523 5 20C5 19.4477 5.44772 19 6 19C6.55228 19 7 19.4477 7 20Z" fill="#272727"/>
<path d="M31 16C31 16.5523 30.5523 17 30 17C29.4477 17 29 16.5523 29 16C29 15.4477 29.4477 15 30 15C30.5523 15 31 15.4477 31 16Z" fill="#272727"/>
<path d="M11 24C11 24.5523 10.5523 25 10 25C9.44771 25 9 24.5523 9 24C9 23.4477 9.44771 23 10 23C10.5523 23 11 23.4477 11 24Z" fill="#272727"/>
<path d="M11 8C11 8.55228 10.5523 9 10 9C9.44771 9 9 8.55228 9 8C9 7.44772 9.44771 7 10 7C10.5523 7 11 7.44772 11 8Z" fill="#272727"/>
</svg>
