<svg width="32" height="32" viewBox="0 0 32 32" fill="none" xmlns="http://www.w3.org/2000/svg">
<path d="M27 12C27 12.5523 26.5523 13 26 13C25.4477 13 25 12.5523 25 12C25 11.4477 25.4477 11 26 11C26.5523 11 27 11.4477 27 12Z" fill="#272727"/>
<path d="M27 16C27 16.5523 26.5523 17 26 17C25.4477 17 25 16.5523 25 16C25 15.4477 25.4477 15 26 15C26.5523 15 27 15.4477 27 16Z" fill="#272727"/>
<path d="M23 16C23 16.5523 22.5523 17 22 17C21.4477 17 21 16.5523 21 16C21 15.4477 21.4477 15 22 15C22.5523 15 23 15.4477 23 16Z" fill="#272727"/>
<path d="M19 16C19 16.5523 18.5523 17 18 17C17.4477 17 17 16.5523 17 16C17 15.4477 17.4477 15 18 15C18.5523 15 19 15.4477 19 16Z" fill="#272727"/>
<path d="M15 16C15 16.5523 14.5523 17 14 17C13.4477 17 13 16.5523 13 16C13 15.4477 13.4477 15 14 15C14.5523 15 15 15.4477 15 16Z" fill="#272727"/>
<path d="M3 16C3 16.5523 2.55228 17 2 17C1.44772 17 1 16.5523 1 16C1 15.4477 1.44772 15 2 15C2.55228 15 3 15.4477 3 16Z" fill="#272727"/>
<path d="M27 20C27 20.5523 26.5523 21 26 21C25.4477 21 25 20.5523 25 20C25 19.4477 25.4477 19 26 19C26.5523 19 27 19.4477 27 20Z" fill="#272727"/>
<path d="M31 16C31 16.5523 30.5523 17 30 17C29.4477 17 29 16.5523 29 16C29 15.4477 29.4477 15 30 15C30.5523 15 31 15.4477 31 16Z" fill="#272727"/>
<path d="M23 24C23 24.5523 22.5523 25 22 25C21.4477 25 21 24.5523 21 24C21 23.4477 21.4477 23 22 23C22.5523 23 23 23.4477 23 24Z" fill="#272727"/>
<path d="M23 8C23 8.55228 22.5523 9 22 9C21.4477 9 21 8.55228 21 8C21 7.44772 21.4477 7 22 7C22.5523 7 23 7.44772 23 8Z" fill="#272727"/>
</svg>
