<svg width="32" height="32" viewBox="0 0 32 32" fill="none" xmlns="http://www.w3.org/2000/svg">
<path d="M25.1924 12.4649C24.8019 12.0744 24.8019 11.4412 25.1924 11.0507C25.5829 10.6602 26.2161 10.6602 26.6066 11.0507C26.9971 11.4412 26.9971 12.0744 26.6066 12.4649C26.2161 12.8554 25.5829 12.8554 25.1924 12.4649Z" fill="#272727"/>
<path d="M13.8787 18.1218C13.4882 17.7312 13.4882 17.0981 13.8787 16.7076C14.2692 16.317 14.9024 16.317 15.2929 16.7076C15.6834 17.0981 15.6834 17.7312 15.2929 18.1218C14.9024 18.5123 14.2692 18.5123 13.8787 18.1218Z" fill="#272727"/>
<path d="M16.7071 15.2933C16.3166 14.9028 16.3166 14.2697 16.7071 13.8791C17.0976 13.4886 17.7308 13.4886 18.1213 13.8791C18.5119 14.2697 18.5119 14.9028 18.1213 15.2933C17.7308 15.6839 17.0976 15.6839 16.7071 15.2933Z" fill="#272727"/>
<path d="M19.5356 12.4649C19.145 12.0744 19.145 11.4412 19.5356 11.0507C19.9261 10.6602 20.5592 10.6602 20.9498 11.0507C21.3403 11.4412 21.3403 12.0744 20.9498 12.4649C20.5592 12.8554 19.9261 12.8554 19.5356 12.4649Z" fill="#272727"/>
<path d="M22.364 9.63649C21.9735 9.24597 21.9735 8.6128 22.364 8.22228C22.7545 7.83175 23.3877 7.83175 23.7782 8.22228C24.1687 8.6128 24.1687 9.24597 23.7782 9.63649C23.3877 10.027 22.7545 10.027 22.364 9.63649Z" fill="#272727"/>
<path d="M25.1924 6.80807C24.8019 6.41754 24.8019 5.78438 25.1924 5.39385C25.5829 5.00333 26.2161 5.00333 26.6066 5.39385C26.9971 5.78438 26.9971 6.41754 26.6066 6.80807C26.2161 7.19859 25.5829 7.19859 25.1924 6.80807Z" fill="#272727"/>
<path d="M19.5356 6.80807C19.145 6.41754 19.145 5.78438 19.5356 5.39385C19.9261 5.00333 20.5592 5.00333 20.9498 5.39385C21.3403 5.78438 21.3403 6.41754 20.9498 6.80807C20.5592 7.19859 19.9261 7.19859 19.5356 6.80807Z" fill="#272727"/>
<path d="M5.39342 26.6071C5.00289 26.2165 5.00289 25.5834 5.39342 25.1928C5.78394 24.8023 6.41711 24.8023 6.80763 25.1928C7.19816 25.5834 7.19815 26.2165 6.80763 26.6071C6.41711 26.9976 5.78394 26.9976 5.39342 26.6071Z" fill="#272727"/>
<path d="M13.8787 6.80807C13.4882 6.41754 13.4882 5.78438 13.8787 5.39385C14.2692 5.00333 14.9024 5.00333 15.2929 5.39385C15.6834 5.78438 15.6834 6.41754 15.2929 6.80807C14.9024 7.19859 14.2692 7.19859 13.8787 6.80807Z" fill="#272727"/>
<path d="M25.1924 18.1218C24.8019 17.7312 24.8019 17.0981 25.1924 16.7076C25.5829 16.317 26.2161 16.317 26.6066 16.7076C26.9971 17.0981 26.9971 17.7312 26.6066 18.1218C26.2161 18.5123 25.5829 18.5123 25.1924 18.1218Z" fill="#272727"/>
</svg>
