<svg width="32" height="32" viewBox="0 0 32 32" fill="none" xmlns="http://www.w3.org/2000/svg">
<path d="M13 12C13 12.5523 12.5523 13 12 13C11.4477 13 11 12.5523 11 12C11 11.4477 11.4477 11 12 11C12.5523 11 13 11.4477 13 12Z" fill="#272727"/>
<path d="M21 20C21 20.5523 20.5523 21 20 21C19.4477 21 19 20.5523 19 20C19 19.4477 19.4477 19 20 19C20.5523 19 21 19.4477 21 20Z" fill="#272727"/>
<path d="M13 20C13 20.5523 12.5523 21 12 21C11.4477 21 11 20.5523 11 20C11 19.4477 11.4477 19 12 19C12.5523 19 13 19.4477 13 20Z" fill="#272727"/>
<path d="M9 24C9 24.5523 8.55228 25 8 25C7.44772 25 7 24.5523 7 24C7 23.4477 7.44772 23 8 23C8.55228 23 9 23.4477 9 24Z" fill="#272727"/>
<path d="M17 16C17 16.5523 16.5523 17 16 17C15.4477 17 15 16.5523 15 16C15 15.4477 15.4477 15 16 15C16.5523 15 17 15.4477 17 16Z" fill="#272727"/>
<path d="M21 12C21 12.5523 20.5523 13 20 13C19.4477 13 19 12.5523 19 12C19 11.4477 19.4477 11 20 11C20.5523 11 21 11.4477 21 12Z" fill="#272727"/>
<path d="M25 24C25 24.5523 24.5523 25 24 25C23.4477 25 23 24.5523 23 24C23 23.4477 23.4477 23 24 23C24.5523 23 25 23.4477 25 24Z" fill="#272727"/>
<path d="M9 8C9 8.55228 8.55228 9 8 9C7.44772 9 7 8.55228 7 8C7 7.44772 7.44772 7 8 7C8.55228 7 9 7.44772 9 8Z" fill="#272727"/>
<path d="M25 8C25 8.55228 24.5523 9 24 9C23.4477 9 23 8.55228 23 8C23 7.44772 23.4477 7 24 7C24.5523 7 25 7.44772 25 8Z" fill="#272727"/>
</svg>
