<svg width="32" height="32" viewBox="0 0 32 32" fill="none" xmlns="http://www.w3.org/2000/svg">
<path d="M24.9 6H7.1C6.80826 6 6.52847 6.11589 6.32218 6.32218C6.11589 6.52847 6 6.80826 6 7.1V24.9C6 25.0445 6.02845 25.1875 6.08373 25.321C6.13901 25.4544 6.22004 25.5757 6.32218 25.6778C6.42433 25.78 6.54559 25.861 6.67905 25.9163C6.81251 25.9715 6.95555 26 7.1 26H16.68V18.25H14.08V15.25H16.68V13C16.6261 12.4718 16.6885 11.9381 16.8627 11.4365C17.0369 10.9349 17.3188 10.4775 17.6885 10.0964C18.0582 9.71528 18.5068 9.41964 19.0028 9.23024C19.4989 9.04083 20.0304 8.96225 20.56 9C21.3383 8.99521 22.1163 9.03528 22.89 9.12V11.82H21.3C20.04 11.82 19.8 12.42 19.8 13.29V15.22H22.8L22.41 18.22H19.8V26H24.9C25.0445 26 25.1875 25.9715 25.321 25.9163C25.4544 25.861 25.5757 25.78 25.6778 25.6778C25.78 25.5757 25.861 25.4544 25.9163 25.321C25.9715 25.1875 26 25.0445 26 24.9V7.1C26 6.95555 25.9715 6.81251 25.9163 6.67905C25.861 6.54559 25.78 6.42433 25.6778 6.32218C25.5757 6.22004 25.4544 6.13901 25.321 6.08373C25.1875 6.02845 25.0445 6 24.9 6Z" fill="#272727"/>
</svg>
