<svg width="32" height="32" viewBox="0 0 32 32" fill="none" xmlns="http://www.w3.org/2000/svg">
<path d="M19 30C19 30.5523 18.5523 31 18 31C17.4477 31 17 30.5523 17 30C17 29.4477 17.4477 29 18 29C18.5523 29 19 29.4477 19 30Z" fill="#272727"/>
<path d="M15 30C15 30.5523 14.5523 31 14 31C13.4477 31 13 30.5523 13 30C13 29.4477 13.4477 29 14 29C14.5523 29 15 29.4477 15 30Z" fill="#272727"/>
<path d="M19 2C19 2.55228 18.5523 3 18 3C17.4477 3 17 2.55228 17 2C17 1.44772 17.4477 1 18 1C18.5523 1 19 1.44772 19 2Z" fill="#272727"/>
<path d="M15 2C15 2.55228 14.5523 3 14 3C13.4477 3 13 2.55228 13 2C13 1.44772 13.4477 1 14 1C14.5523 1 15 1.44772 15 2Z" fill="#272727"/>
<path d="M19 6C19 6.55228 18.5523 7 18 7C17.4477 7 17 6.55228 17 6C17 5.44772 17.4477 5 18 5C18.5523 5 19 5.44772 19 6Z" fill="#272727"/>
<path d="M15 10C15 10.5523 14.5523 11 14 11C13.4477 11 13 10.5523 13 10C13 9.44771 13.4477 9 14 9C14.5523 9 15 9.44771 15 10Z" fill="#272727"/>
<path d="M27 14C27 14.5523 26.5523 15 26 15C25.4477 15 25 14.5523 25 14C25 13.4477 25.4477 13 26 13C26.5523 13 27 13.4477 27 14Z" fill="#272727"/>
<path d="M19 14C19 14.5523 18.5523 15 18 15C17.4477 15 17 14.5523 17 14C17 13.4477 17.4477 13 18 13C18.5523 13 19 13.4477 19 14Z" fill="#272727"/>
<path d="M15 14C15 14.5523 14.5523 15 14 15C13.4477 15 13 14.5523 13 14C13 13.4477 13.4477 13 14 13C14.5523 13 15 13.4477 15 14Z" fill="#272727"/>
<path d="M10 14C10 14.5523 9.55229 15 9 15C8.44772 15 8 14.5523 8 14C8 13.4477 8.44772 13 9 13C9.55229 13 10 13.4477 10 14Z" fill="#272727"/>
<path d="M3 14C3 14.5523 2.55228 15 2 15C1.44772 15 1 14.5523 1 14C1 13.4477 1.44772 13 2 13C2.55228 13 3 13.4477 3 14Z" fill="#272727"/>
<path d="M31 14C31 14.5523 30.5523 15 30 15C29.4477 15 29 14.5523 29 14C29 13.4477 29.4477 13 30 13C30.5523 13 31 13.4477 31 14Z" fill="#272727"/>
<path d="M23 18C23 18.5523 22.5523 19 22 19C21.4477 19 21 18.5523 21 18C21 17.4477 21.4477 17 22 17C22.5523 17 23 17.4477 23 18Z" fill="#272727"/>
<path d="M19 22C19 22.5523 18.5523 23 18 23C17.4477 23 17 22.5523 17 22C17 21.4477 17.4477 21 18 21C18.5523 21 19 21.4477 19 22Z" fill="#272727"/>
<path d="M15 18C15 18.5523 14.5523 19 14 19C13.4477 19 13 18.5523 13 18C13 17.4477 13.4477 17 14 17C14.5523 17 15 17.4477 15 18Z" fill="#272727"/>
<path d="M7 18C7 18.5523 6.55228 19 6 19C5.44772 19 5 18.5523 5 18C5 17.4477 5.44772 17 6 17C6.55228 17 7 17.4477 7 18Z" fill="#272727"/>
<path d="M3 18C3 18.5523 2.55228 19 2 19C1.44772 19 1 18.5523 1 18C1 17.4477 1.44772 17 2 17C2.55228 17 3 17.4477 3 18Z" fill="#272727"/>
<path d="M31 18C31 18.5523 30.5523 19 30 19C29.4477 19 29 18.5523 29 18C29 17.4477 29.4477 17 30 17C30.5523 17 31 17.4477 31 18Z" fill="#272727"/>
<path d="M19 26C19 26.5523 18.5523 27 18 27C17.4477 27 17 26.5523 17 26C17 25.4477 17.4477 25 18 25C18.5523 25 19 25.4477 19 26Z" fill="#272727"/>
<path d="M15 26C15 26.5523 14.5523 27 14 27C13.4477 27 13 26.5523 13 26C13 25.4477 13.4477 25 14 25C14.5523 25 15 25.4477 15 26Z" fill="#272727"/>
</svg>
