<svg width="33" height="32" viewBox="0 0 33 32" fill="none" xmlns="http://www.w3.org/2000/svg">
<path d="M27.5 30C27.5 30.5523 27.0523 31 26.5 31C25.9477 31 25.5 30.5523 25.5 30C25.5 29.4477 25.9477 29 26.5 29C27.0523 29 27.5 29.4477 27.5 30Z" fill="#272727"/>
<path d="M23.5 30C23.5 30.5523 23.0523 31 22.5 31C21.9477 31 21.5 30.5523 21.5 30C21.5 29.4477 21.9477 29 22.5 29C23.0523 29 23.5 29.4477 23.5 30Z" fill="#272727"/>
<path d="M19.5 30C19.5 30.5523 19.0523 31 18.5 31C17.9477 31 17.5 30.5523 17.5 30C17.5 29.4477 17.9477 29 18.5 29C19.0523 29 19.5 29.4477 19.5 30Z" fill="#272727"/>
<path d="M15.5 30C15.5 30.5523 15.0523 31 14.5 31C13.9477 31 13.5 30.5523 13.5 30C13.5 29.4477 13.9477 29 14.5 29C15.0523 29 15.5 29.4477 15.5 30Z" fill="#272727"/>
<path d="M11.5 30C11.5 30.5523 11.0523 31 10.5 31C9.94771 31 9.5 30.5523 9.5 30C9.5 29.4477 9.94771 29 10.5 29C11.0523 29 11.5 29.4477 11.5 30Z" fill="#272727"/>
<path d="M7.5 30C7.5 30.5523 7.05228 31 6.5 31C5.94772 31 5.5 30.5523 5.5 30C5.5 29.4477 5.94772 29 6.5 29C7.05228 29 7.5 29.4477 7.5 30Z" fill="#272727"/>
<path d="M3.5 30C3.5 30.5523 3.05228 31 2.5 31C1.94772 31 1.5 30.5523 1.5 30C1.5 29.4477 1.94772 29 2.5 29C3.05228 29 3.5 29.4477 3.5 30Z" fill="#272727"/>
<path d="M31.5 30C31.5 30.5523 31.0523 31 30.5 31C29.9477 31 29.5 30.5523 29.5 30C29.5 29.4477 29.9477 29 30.5 29C31.0523 29 31.5 29.4477 31.5 30Z" fill="#272727"/>
<path d="M3.5 26C3.5 26.5523 3.05228 27 2.5 27C1.94772 27 1.5 26.5523 1.5 26C1.5 25.4477 1.94772 25 2.5 25C3.05228 25 3.5 25.4477 3.5 26Z" fill="#272727"/>
<path d="M31.5 26C31.5 26.5523 31.0523 27 30.5 27C29.9477 27 29.5 26.5523 29.5 26C29.5 25.4477 29.9477 25 30.5 25C31.0523 25 31.5 25.4477 31.5 26Z" fill="#272727"/>
<path d="M19.5 2C19.5 2.55228 19.0523 3 18.5 3C17.9477 3 17.5 2.55228 17.5 2C17.5 1.44772 17.9477 1 18.5 1C19.0523 1 19.5 1.44772 19.5 2Z" fill="#272727"/>
<path d="M15.5 2C15.5 2.55228 15.0523 3 14.5 3C13.9477 3 13.5 2.55228 13.5 2C13.5 1.44772 13.9477 1 14.5 1C15.0523 1 15.5 1.44772 15.5 2Z" fill="#272727"/>
<path d="M19.5 6C19.5 6.55228 19.0523 7 18.5 7C17.9477 7 17.5 6.55228 17.5 6C17.5 5.44772 17.9477 5 18.5 5C19.0523 5 19.5 5.44772 19.5 6Z" fill="#272727"/>
<path d="M15.5 6C15.5 6.55228 15.0523 7 14.5 7C13.9477 7 13.5 6.55228 13.5 6C13.5 5.44772 13.9477 5 14.5 5C15.0523 5 15.5 5.44772 15.5 6Z" fill="#272727"/>
<path d="M27.5 10C27.5 10.5523 27.0523 11 26.5 11C25.9477 11 25.5 10.5523 25.5 10C25.5 9.44771 25.9477 9 26.5 9C27.0523 9 27.5 9.44771 27.5 10Z" fill="#272727"/>
<path d="M23.5 10C23.5 10.5523 23.0523 11 22.5 11C21.9477 11 21.5 10.5523 21.5 10C21.5 9.44771 21.9477 9 22.5 9C23.0523 9 23.5 9.44771 23.5 10Z" fill="#272727"/>
<path d="M11.5 10C11.5 10.5523 11.0523 11 10.5 11C9.94771 11 9.5 10.5523 9.5 10C9.5 9.44771 9.94771 9 10.5 9C11.0523 9 11.5 9.44771 11.5 10Z" fill="#272727"/>
<path d="M7.5 10C7.5 10.5523 7.05228 11 6.5 11C5.94772 11 5.5 10.5523 5.5 10C5.5 9.44771 5.94772 9 6.5 9C7.05228 9 7.5 9.44771 7.5 10Z" fill="#272727"/>
<path d="M3.5 14C3.5 14.5523 3.05228 15 2.5 15C1.94772 15 1.5 14.5523 1.5 14C1.5 13.4477 1.94772 13 2.5 13C3.05228 13 3.5 13.4477 3.5 14Z" fill="#272727"/>
<path d="M31.5 14C31.5 14.5523 31.0523 15 30.5 15C29.9477 15 29.5 14.5523 29.5 14C29.5 13.4477 29.9477 13 30.5 13C31.0523 13 31.5 13.4477 31.5 14Z" fill="#272727"/>
<path d="M27.5 22C27.5 22.5523 27.0523 23 26.5 23C25.9477 23 25.5 22.5523 25.5 22C25.5 21.4477 25.9477 21 26.5 21C27.0523 21 27.5 21.4477 27.5 22Z" fill="#272727"/>
<path d="M23.5 22C23.5 22.5523 23.0523 23 22.5 23C21.9477 23 21.5 22.5523 21.5 22C21.5 21.4477 21.9477 21 22.5 21C23.0523 21 23.5 21.4477 23.5 22Z" fill="#272727"/>
<path d="M19.5 22C19.5 22.5523 19.0523 23 18.5 23C17.9477 23 17.5 22.5523 17.5 22C17.5 21.4477 17.9477 21 18.5 21C19.0523 21 19.5 21.4477 19.5 22Z" fill="#272727"/>
<path d="M15.5 22C15.5 22.5523 15.0523 23 14.5 23C13.9477 23 13.5 22.5523 13.5 22C13.5 21.4477 13.9477 21 14.5 21C15.0523 21 15.5 21.4477 15.5 22Z" fill="#272727"/>
<path d="M11.5 22C11.5 22.5523 11.0523 23 10.5 23C9.94771 23 9.5 22.5523 9.5 22C9.5 21.4477 9.94771 21 10.5 21C11.0523 21 11.5 21.4477 11.5 22Z" fill="#272727"/>
<path d="M7.5 22C7.5 22.5523 7.05228 23 6.5 23C5.94772 23 5.5 22.5523 5.5 22C5.5 21.4477 5.94772 21 6.5 21C7.05228 21 7.5 21.4477 7.5 22Z" fill="#272727"/>
<path d="M27.5 26C27.5 26.5523 27.0523 27 26.5 27C25.9477 27 25.5 26.5523 25.5 26C25.5 25.4477 25.9477 25 26.5 25C27.0523 25 27.5 25.4477 27.5 26Z" fill="#272727"/>
<path d="M23.5 26C23.5 26.5523 23.0523 27 22.5 27C21.9477 27 21.5 26.5523 21.5 26C21.5 25.4477 21.9477 25 22.5 25C23.0523 25 23.5 25.4477 23.5 26Z" fill="#272727"/>
<path d="M19.5 26C19.5 26.5523 19.0523 27 18.5 27C17.9477 27 17.5 26.5523 17.5 26C17.5 25.4477 17.9477 25 18.5 25C19.0523 25 19.5 25.4477 19.5 26Z" fill="#272727"/>
<path d="M15.5 26C15.5 26.5523 15.0523 27 14.5 27C13.9477 27 13.5 26.5523 13.5 26C13.5 25.4477 13.9477 25 14.5 25C15.0523 25 15.5 25.4477 15.5 26Z" fill="#272727"/>
<path d="M11.5 26C11.5 26.5523 11.0523 27 10.5 27C9.94771 27 9.5 26.5523 9.5 26C9.5 25.4477 9.94771 25 10.5 25C11.0523 25 11.5 25.4477 11.5 26Z" fill="#272727"/>
<path d="M7.5 26C7.5 26.5523 7.05228 27 6.5 27C5.94772 27 5.5 26.5523 5.5 26C5.5 25.4477 5.94772 25 6.5 25C7.05228 25 7.5 25.4477 7.5 26Z" fill="#272727"/>
<path d="M3.5 22C3.5 22.5523 3.05228 23 2.5 23C1.94772 23 1.5 22.5523 1.5 22C1.5 21.4477 1.94772 21 2.5 21C3.05228 21 3.5 21.4477 3.5 22Z" fill="#272727"/>
<path d="M31.5 22C31.5 22.5523 31.0523 23 30.5 23C29.9477 23 29.5 22.5523 29.5 22C29.5 21.4477 29.9477 21 30.5 21C31.0523 21 31.5 21.4477 31.5 22Z" fill="#272727"/>
</svg>
