<svg width="32" height="32" viewBox="0 0 32 32" fill="none" xmlns="http://www.w3.org/2000/svg">
<path d="M27 26C27 26.5523 26.5523 27 26 27C25.4477 27 25 26.5523 25 26C25 25.4477 25.4477 25 26 25C26.5523 25 27 25.4477 27 26Z" fill="#272727"/>
<path d="M23 26C23 26.5523 22.5523 27 22 27C21.4477 27 21 26.5523 21 26C21 25.4477 21.4477 25 22 25C22.5523 25 23 25.4477 23 26Z" fill="#272727"/>
<path d="M19 26C19 26.5523 18.5523 27 18 27C17.4477 27 17 26.5523 17 26C17 25.4477 17.4477 25 18 25C18.5523 25 19 25.4477 19 26Z" fill="#272727"/>
<path d="M15 26C15 26.5523 14.5523 27 14 27C13.4477 27 13 26.5523 13 26C13 25.4477 13.4477 25 14 25C14.5523 25 15 25.4477 15 26Z" fill="#272727"/>
<path d="M11 26C11 26.5523 10.5523 27 10 27C9.44771 27 9 26.5523 9 26C9 25.4477 9.44771 25 10 25C10.5523 25 11 25.4477 11 26Z" fill="#272727"/>
<path d="M7 26C7 26.5523 6.55228 27 6 27C5.44772 27 5 26.5523 5 26C5 25.4477 5.44772 25 6 25C6.55228 25 7 25.4477 7 26Z" fill="#272727"/>
<path d="M27 6C27 6.55228 26.5523 7 26 7C25.4477 7 25 6.55228 25 6C25 5.44772 25.4477 5 26 5C26.5523 5 27 5.44772 27 6Z" fill="#272727"/>
<path d="M23 6C23 6.55228 22.5523 7 22 7C21.4477 7 21 6.55228 21 6C21 5.44772 21.4477 5 22 5C22.5523 5 23 5.44772 23 6Z" fill="#272727"/>
<path d="M19 6C19 6.55228 18.5523 7 18 7C17.4477 7 17 6.55228 17 6C17 5.44772 17.4477 5 18 5C18.5523 5 19 5.44772 19 6Z" fill="#272727"/>
<path d="M15 6C15 6.55228 14.5523 7 14 7C13.4477 7 13 6.55228 13 6C13 5.44772 13.4477 5 14 5C14.5523 5 15 5.44772 15 6Z" fill="#272727"/>
<path d="M11 6C11 6.55228 10.5523 7 10 7C9.44771 7 9 6.55228 9 6C9 5.44772 9.44771 5 10 5C10.5523 5 11 5.44772 11 6Z" fill="#272727"/>
<path d="M7 6C7 6.55228 6.55228 7 6 7C5.44772 7 5 6.55228 5 6C5 5.44772 5.44772 5 6 5C6.55228 5 7 5.44772 7 6Z" fill="#272727"/>
<path d="M3 10C3 10.5523 2.55228 11 2 11C1.44772 11 1 10.5523 1 10C1 9.44772 1.44772 9 2 9C2.55228 9 3 9.44772 3 10Z" fill="#272727"/>
<path d="M3 18C3 18.5523 2.55228 19 2 19C1.44772 19 1 18.5523 1 18C1 17.4477 1.44772 17 2 17C2.55228 17 3 17.4477 3 18Z" fill="#272727"/>
<path d="M31 10C31 10.5523 30.5523 11 30 11C29.4477 11 29 10.5523 29 10C29 9.44772 29.4477 9 30 9C30.5523 9 31 9.44772 31 10Z" fill="#272727"/>
<path d="M31 18C31 18.5523 30.5523 19 30 19C29.4477 19 29 18.5523 29 18C29 17.4477 29.4477 17 30 17C30.5523 17 31 17.4477 31 18Z" fill="#272727"/>
<path d="M27 14C27 14.5523 26.5523 15 26 15C25.4477 15 25 14.5523 25 14C25 13.4477 25.4477 13 26 13C26.5523 13 27 13.4477 27 14Z" fill="#272727"/>
<path d="M23 14C23 14.5523 22.5523 15 22 15C21.4477 15 21 14.5523 21 14C21 13.4477 21.4477 13 22 13C22.5523 13 23 13.4477 23 14Z" fill="#272727"/>
<path d="M19 14C19 14.5523 18.5523 15 18 15C17.4477 15 17 14.5523 17 14C17 13.4477 17.4477 13 18 13C18.5523 13 19 13.4477 19 14Z" fill="#272727"/>
<path d="M15 14C15 14.5523 14.5523 15 14 15C13.4477 15 13 14.5523 13 14C13 13.4477 13.4477 13 14 13C14.5523 13 15 13.4477 15 14Z" fill="#272727"/>
<path d="M11 14C11 14.5523 10.5523 15 10 15C9.44771 15 9 14.5523 9 14C9 13.4477 9.44771 13 10 13C10.5523 13 11 13.4477 11 14Z" fill="#272727"/>
<path d="M7 14C7 14.5523 6.55228 15 6 15C5.44772 15 5 14.5523 5 14C5 13.4477 5.44772 13 6 13C6.55228 13 7 13.4477 7 14Z" fill="#272727"/>
<path d="M15 18C15 18.5523 14.5523 19 14 19C13.4477 19 13 18.5523 13 18C13 17.4477 13.4477 17 14 17C14.5523 17 15 17.4477 15 18Z" fill="#272727"/>
<path d="M11 18C11 18.5523 10.5523 19 10 19C9.44771 19 9 18.5523 9 18C9 17.4477 9.44771 17 10 17C10.5523 17 11 17.4477 11 18Z" fill="#272727"/>
<path d="M7 18C7 18.5523 6.55228 19 6 19C5.44772 19 5 18.5523 5 18C5 17.4477 5.44772 17 6 17C6.55228 17 7 17.4477 7 18Z" fill="#272727"/>
<path d="M3 14C3 14.5523 2.55228 15 2 15C1.44772 15 1 14.5523 1 14C1 13.4477 1.44772 13 2 13C2.55228 13 3 13.4477 3 14Z" fill="#272727"/>
<path d="M31 14C31 14.5523 30.5523 15 30 15C29.4477 15 29 14.5523 29 14C29 13.4477 29.4477 13 30 13C30.5523 13 31 13.4477 31 14Z" fill="#272727"/>
<path d="M3 22C3 22.5523 2.55228 23 2 23C1.44772 23 1 22.5523 1 22C1 21.4477 1.44772 21 2 21C2.55228 21 3 21.4477 3 22Z" fill="#272727"/>
<path d="M31 22C31 22.5523 30.5523 23 30 23C29.4477 23 29 22.5523 29 22C29 21.4477 29.4477 21 30 21C30.5523 21 31 21.4477 31 22Z" fill="#272727"/>
<path d="M27 22C27 22.5523 26.5523 23 26 23C25.4477 23 25 22.5523 25 22C25 21.4477 25.4477 21 26 21C26.5523 21 27 21.4477 27 22Z" fill="#272727"/>
<path d="M23 22C23 22.5523 22.5523 23 22 23C21.4477 23 21 22.5523 21 22C21 21.4477 21.4477 21 22 21C22.5523 21 23 21.4477 23 22Z" fill="#272727"/>
</svg>
