<svg width="32" height="32" viewBox="0 0 32 32" fill="none" xmlns="http://www.w3.org/2000/svg">
<path d="M24.5211 6.00014H7.47887C7.2873 5.9975 7.09708 6.03239 6.91908 6.10282C6.74108 6.17326 6.57878 6.27786 6.44145 6.41065C6.30412 6.54344 6.19445 6.70182 6.1187 6.87675C6.04296 7.05167 6.00262 7.23972 6 7.43014V24.5701C6.00262 24.7606 6.04296 24.9486 6.1187 25.1235C6.19445 25.2985 6.30412 25.4568 6.44145 25.5896C6.57878 25.7224 6.74108 25.827 6.91908 25.8975C7.09708 25.9679 7.2873 26.0028 7.47887 26.0001H24.5211C24.7127 26.0028 24.9029 25.9679 25.0809 25.8975C25.2589 25.827 25.4212 25.7224 25.5586 25.5896C25.6959 25.4568 25.8056 25.2985 25.8813 25.1235C25.957 24.9486 25.9974 24.7606 26 24.5701V7.43014C25.9974 7.23972 25.957 7.05167 25.8813 6.87675C25.8056 6.70182 25.6959 6.54344 25.5586 6.41065C25.4212 6.27786 25.2589 6.17326 25.0809 6.10282C24.9029 6.03239 24.7127 5.9975 24.5211 6.00014ZM12.0664 22.7401H9.04829V13.7401H12.0664V22.7401ZM10.5573 12.4801C10.1411 12.4801 9.74192 12.3158 9.4476 12.0232C9.15328 11.7307 8.98793 11.3339 8.98793 10.9201C8.98793 10.5064 9.15328 10.1096 9.4476 9.81705C9.74192 9.5245 10.1411 9.36014 10.5573 9.36014C10.7784 9.33522 11.0022 9.35699 11.2142 9.42402C11.4261 9.49105 11.6215 9.60183 11.7874 9.7491C11.9533 9.89637 12.086 10.0768 12.1769 10.2786C12.2678 10.4804 12.3148 10.699 12.3148 10.9201C12.3148 11.1412 12.2678 11.3599 12.1769 11.5617C12.086 11.7635 11.9533 11.9439 11.7874 12.0912C11.6215 12.2385 11.4261 12.3492 11.2142 12.4163C11.0022 12.4833 10.7784 12.5051 10.5573 12.4801ZM22.9517 22.7401H19.9336V17.9101C19.9336 16.7001 19.501 15.9101 18.4044 15.9101C18.0651 15.9126 17.7346 16.0184 17.4576 16.2133C17.1806 16.4082 16.9703 16.6828 16.8551 17.0001C16.7764 17.2352 16.7423 17.4827 16.7545 17.7301V22.7301H13.7364C13.7364 22.7301 13.7364 14.5501 13.7364 13.7301H16.7545V15.0001C17.0287 14.5272 17.4275 14.1377 17.9079 13.8733C18.3883 13.609 18.9322 13.48 19.4809 13.5001C21.493 13.5001 22.9517 14.7901 22.9517 17.5601V22.7401Z" fill="#272727"/>
</svg>
