<svg width="32" height="32" viewBox="0 0 32 32" fill="none" xmlns="http://www.w3.org/2000/svg">
<path d="M16.11 19.3901L12.23 23.2701C11.7602 23.7235 11.1328 23.9768 10.48 23.9768C9.8271 23.9768 9.19972 23.7235 8.72996 23.2701C8.49956 23.0406 8.31675 22.7679 8.19201 22.4676C8.06727 22.1673 8.00306 21.8453 8.00306 21.5201C8.00306 21.1949 8.06727 20.8729 8.19201 20.5726C8.31675 20.2723 8.49956 19.9996 8.72996 19.7701L12.61 15.8901C12.7983 15.7018 12.9041 15.4464 12.9041 15.1801C12.9041 14.9138 12.7983 14.6584 12.61 14.4701C12.4217 14.2818 12.1663 14.176 11.9 14.176C11.6337 14.176 11.3783 14.2818 11.19 14.4701L7.30996 18.3601C6.52831 19.2109 6.10558 20.3308 6.13003 21.4858C6.15449 22.6409 6.62424 23.7419 7.44119 24.5589C8.25814 25.3758 9.35912 25.8456 10.5142 25.87C11.6693 25.8945 12.7892 25.4717 13.64 24.6901L17.53 20.8101C17.7183 20.6218 17.8241 20.3664 17.8241 20.1001C17.8241 19.8338 17.7183 19.5784 17.53 19.3901C17.3417 19.2018 17.0863 19.096 16.82 19.096C16.5537 19.096 16.2983 19.2018 16.11 19.3901ZM24.69 7.31009C23.8487 6.4741 22.7109 6.00488 21.525 6.00488C20.339 6.00488 19.2012 6.4741 18.36 7.31009L14.47 11.1901C14.3767 11.2833 14.3028 11.394 14.2523 11.5158C14.2018 11.6377 14.1759 11.7682 14.1759 11.9001C14.1759 12.032 14.2018 12.1625 14.2523 12.2843C14.3028 12.4062 14.3767 12.5169 14.47 12.6101C14.5632 12.7033 14.6739 12.7773 14.7957 12.8278C14.9175 12.8782 15.0481 12.9042 15.18 12.9042C15.3118 12.9042 15.4424 12.8782 15.5642 12.8278C15.686 12.7773 15.7967 12.7033 15.89 12.6101L19.77 8.73009C20.2397 8.27672 20.8671 8.02335 21.52 8.02335C22.1728 8.02335 22.8002 8.27672 23.27 8.73009C23.5004 8.95958 23.6832 9.2323 23.8079 9.53261C23.9326 9.83292 23.9969 10.1549 23.9969 10.4801C23.9969 10.8053 23.9326 11.1273 23.8079 11.4276C23.6832 11.7279 23.5004 12.0006 23.27 12.2301L19.39 16.1101C19.2962 16.2031 19.2218 16.3137 19.1711 16.4355C19.1203 16.5574 19.0942 16.6881 19.0942 16.8201C19.0942 16.9521 19.1203 17.0828 19.1711 17.2047C19.2218 17.3265 19.2962 17.4371 19.39 17.5301C19.4829 17.6238 19.5935 17.6982 19.7154 17.749C19.8372 17.7998 19.9679 17.8259 20.1 17.8259C20.232 17.8259 20.3627 17.7998 20.4845 17.749C20.6064 17.6982 20.717 17.6238 20.81 17.5301L24.69 13.6401C25.526 12.7989 25.9952 11.6611 25.9952 10.4751C25.9952 9.28912 25.526 8.15131 24.69 7.31009ZM12.83 19.1701C12.9234 19.2628 13.0342 19.3361 13.1561 19.3859C13.2779 19.4356 13.4084 19.4609 13.54 19.4601C13.6716 19.4609 13.802 19.4356 13.9239 19.3859C14.0457 19.3361 14.1565 19.2628 14.25 19.1701L19.17 14.2501C19.3583 14.0618 19.4641 13.8064 19.4641 13.5401C19.4641 13.2738 19.3583 13.0184 19.17 12.8301C18.9817 12.6418 18.7263 12.536 18.46 12.536C18.1937 12.536 17.9383 12.6418 17.75 12.8301L12.83 17.7501C12.7362 17.8431 12.6618 17.9537 12.6111 18.0755C12.5603 18.1974 12.5342 18.3281 12.5342 18.4601C12.5342 18.5921 12.5603 18.7228 12.6111 18.8447C12.6618 18.9665 12.7362 19.0771 12.83 19.1701Z" fill="#272727"/>
</svg>
