<svg width="32" height="32" viewBox="0 0 32 32" fill="none" xmlns="http://www.w3.org/2000/svg">
<path d="M21 10C21 10.5523 20.5523 11 20 11C19.4477 11 19 10.5523 19 10C19 9.44772 19.4477 9 20 9C20.5523 9 21 9.44772 21 10Z" fill="#272727"/>
<path d="M13 10C13 10.5523 12.5523 11 12 11C11.4477 11 11 10.5523 11 10C11 9.44772 11.4477 9 12 9C12.5523 9 13 9.44772 13 10Z" fill="#272727"/>
<path d="M9 10C9 10.5523 8.55228 11 8 11C7.44772 11 7 10.5523 7 10C7 9.44772 7.44772 9 8 9C8.55228 9 9 9.44772 9 10Z" fill="#272727"/>
<path d="M17 10C17 10.5523 16.5523 11 16 11C15.4477 11 15 10.5523 15 10C15 9.44772 15.4477 9 16 9C16.5523 9 17 9.44772 17 10Z" fill="#272727"/>
<path d="M25 10C25 10.5523 24.5523 11 24 11C23.4477 11 23 10.5523 23 10C23 9.44772 23.4477 9 24 9C24.5523 9 25 9.44772 25 10Z" fill="#272727"/>
<path d="M21 16C21 16.5523 20.5523 17 20 17C19.4477 17 19 16.5523 19 16C19 15.4477 19.4477 15 20 15C20.5523 15 21 15.4477 21 16Z" fill="#272727"/>
<path d="M21 22C21 22.5523 20.5523 23 20 23C19.4477 23 19 22.5523 19 22C19 21.4477 19.4477 21 20 21C20.5523 21 21 21.4477 21 22Z" fill="#272727"/>
<path d="M13 16C13 16.5523 12.5523 17 12 17C11.4477 17 11 16.5523 11 16C11 15.4477 11.4477 15 12 15C12.5523 15 13 15.4477 13 16Z" fill="#272727"/>
<path d="M13 22C13 22.5523 12.5523 23 12 23C11.4477 23 11 22.5523 11 22C11 21.4477 11.4477 21 12 21C12.5523 21 13 21.4477 13 22Z" fill="#272727"/>
<path d="M9 16C9 16.5523 8.55228 17 8 17C7.44772 17 7 16.5523 7 16C7 15.4477 7.44772 15 8 15C8.55228 15 9 15.4477 9 16Z" fill="#272727"/>
<path d="M9 22C9 22.5523 8.55228 23 8 23C7.44772 23 7 22.5523 7 22C7 21.4477 7.44772 21 8 21C8.55228 21 9 21.4477 9 22Z" fill="#272727"/>
<path d="M17 16C17 16.5523 16.5523 17 16 17C15.4477 17 15 16.5523 15 16C15 15.4477 15.4477 15 16 15C16.5523 15 17 15.4477 17 16Z" fill="#272727"/>
<path d="M17 22C17 22.5523 16.5523 23 16 23C15.4477 23 15 22.5523 15 22C15 21.4477 15.4477 21 16 21C16.5523 21 17 21.4477 17 22Z" fill="#272727"/>
<path d="M25 22C25 22.5523 24.5523 23 24 23C23.4477 23 23 22.5523 23 22C23 21.4477 23.4477 21 24 21C24.5523 21 25 21.4477 25 22Z" fill="#272727"/>
</svg>
